<?xml version="1.0"?>
<svg xmlns:rdf="http://www.w3.org/1999/02/22-rdf-syntax-ns#" xmlns="http://www.w3.org/2000/svg" xmlns:cc="http://web.resource.org/cc/" xmlns:dc="http://purl.org/dc/elements/1.1/" xmlns:svg="http://www.w3.org/2000/svg" id="svg2" viewBox="0 0 295 203" version="1.0">
  <g id="layer1" transform="translate(0 -.36218)">
    <g id="g2221" transform="matrix(.80009 0 0 .80009 -24.733 -68.632)">
      <g id="g1322" transform="matrix(.6189 0 0 .6189 30.473 85.006)">
        <g id="g15499" stroke="#000" stroke-width="5" transform="matrix(1.2515 0 0 1.2515 -629.16 -229.81)">
          <path id="path8344" fill-rule="evenodd" fill="#fff" d="m888.29 251.46c-30.01-32.05-75.4-27.09-102.51 21.66-27.1 48.74-62.44 70.94-111.79 45.73-49.35-25.2-98.63-32.92-94.8 15.67l5.24 29.55 28.37 44.13 107.25 50.81 151-43.05 62.1-98.08-44.86-66.42z"/>
          <path id="path8342" fill-rule="evenodd" fill="#fff" d="m940.58 278.9c50.72-52.91-35-116.77-63.71-46.63-28.72 70.13-108.29 131.56-188.59 127.81-53.56 10.93-151.68-67.59-165.19-15.96-13.51 51.62 22.07 67.86 51.81 73.44"/>
          <path id="path8350" fill-rule="evenodd" fill="#fff" d="m916.08 282.56c-14.45-0.1-29.01-8.03-47.75-13.5-18.74-5.48-35.28-5.32-41.56 20.42-6.32 25.97 20.5 34.61 14.55 50.04-15.49 11.87-37.48 0.48-54.71-3.36-21.52-8.72-36.52 12.09-36.89 31.8-1.75 19.39-25.76 15.99-34.43 3.53-7.69-11.28-16.59-25.91-32.71-23.5-12.65 4.09-23.61 21.14-38.89 14.39-15.29-6.74-9.19-20.94-18.4-34.46-9.2-13.51-25.24 7.84-17.58 23.74 7.66 15.89 19.59 33.18 39.2 29.7 16.33 5.38 29.1-17.03 44.72-6.07 15.61 10.97 19.14 28.16 38.24 28.96 21.07 1.48 34.82-21.52 40.05-40.1 5.98-17.67 24.99 1.24 39.55 4.58s39.84-4.07 51.39-17.73c15.47-21.86-23.69-48.21-11.46-62.69 11.39-13.48 24.51 10.35 36.65 13.11 9.35 0.55 28.75 10.28 6.55 11.34"/>
          <path id="path8340" fill-rule="evenodd" fill="#fff" d="m892.27 428.71c109.73-67.13 72.14-200.96-8.12-142.1-80.26 58.87-138.26 137.25-213.18 99.27-74.91-37.98-144.52 24.75-71.84 81.12 90.86 51.29 183.36 28.85 293.14-38.29z"/>
          <path id="path13640" stroke-linecap="round" fill="none" d="m539.96 346.53c-10.22-0.35-17.18 9.25-20.1 17.95"/>
          <path id="path13644" stroke-linecap="round" fill="none" d="m935.6 208.67c-9.66 0.71-21.67 2.82-25.85 12.92"/>
        </g>
      </g>
    </g>
    <path id="path2248" d="m126.61 125.98c-3.71-4.52-8.63-8.99-11.2-10.15-3.79-1.72-7.32-1.11-15.16 2.64-2.658 1.27-3.678 1.52-4.687 1.13-3.347-1.27-10.44-2.74-15.253-3.16-6.298-0.54-6.341-0.57-10.65-7.19-3.812-5.86-4.972-9.1-4.547-12.683 0.59-4.986 4.162-9.474 6.977-8.768 1.836 0.461 4.256 4.753 5.432 9.632 1.624 6.739 2.772 9.189 5.41 11.509 3.115 2.74 6.743 3.89 10.2 3.24 3.747-0.72 5.009-1.31 10.118-4.74 6.21-4.17 7.71-4.9 10.12-4.89 4.74 0.01 9.41 3.56 14.91 11.32 1.6 2.27 3.8 4.85 4.89 5.75 4.27 3.52 11.01 4.72 15.38 2.73 3.63-1.64 4.8-3.97 6.09-12.11 1.38-8.69 6.59-14.953 13.33-16.031 1.76-0.281 4.15 0.186 11.53 2.255 5.13 1.435 9.26 2.779 9.18 2.985-0.24 0.701-9.51 7.901-10.16 7.901-0.36 0-1.91-0.48-3.46-1.07-3.54-1.35-5.68-1.35-7.85-0.01-1.73 1.07-2.28 2.06-4.87 8.82-0.79 2.06-1.69 4.06-2 4.45-0.85 1.08-7.46 4.28-12.94 6.26-5.71 2.07-11.95 3.45-15.56 3.44-2.49 0-2.64-0.1-5.23-3.26z" fill="#fd5"/>
    <path id="path2250" d="m205.45 81.143c-0.98-1.492-2.27-3.829-2.88-5.193-3.09-6.994 0.52-18.837 6.83-22.374 4.64-2.604 9.76-2.074 23.14 2.397l7.67 2.566-4.74 3.38c-2.6 1.86-5.01 3.487-5.35 3.618-0.34 0.13-1.78-0.656-3.2-1.747-4.71-3.603-8.08-4.311-11.27-2.365-4 2.437-4.99 7.445-2.53 12.738 0.73 1.571 1.33 3.165 1.33 3.543 0 0.612-6.26 6.149-6.95 6.149-0.15 0-1.08-1.221-2.05-2.712z" fill="#fd5"/>
    <path id="path2252" d="m34.496 140.23c-7.155-2.51-13.184-6.34-16.529-10.5-5.165-6.43-7.32-15.9-4.8-21.11 1.291-2.66 4.711-5.93 6.631-6.33 0.741-0.15 1.964-0.41 2.718-0.57 1.043-0.21 1.329-0.56 1.201-1.46-0.092-0.646-0.57-1.252-1.062-1.346-1.695-0.323-5.21 0.995-7.674 2.876-1.831 1.4-2.401 1.64-2.2 0.92 0.15-0.53 0.657-2.35 1.129-4.034 0.989-3.543 3.227-6.359 6.385-8.034 1.835-0.974 3-1.15 7.259-1.096 2.79 0.036 6.815 0.448 8.945 0.917 4.256 0.938 15.188 4.403 21.561 6.834 3.96 1.51 4.083 1.611 4.404 3.623 0.4 2.5 3.414 8.35 6.26 12.15 1.146 1.53 2.083 2.89 2.083 3.02s-1.262 0.4-2.804 0.6c-3.992 0.52-11.935 3.25-15.078 5.19-6.783 4.17-11.279 9.76-12.944 16.11-0.51 1.94-1.172 3.52-1.471 3.5-0.299-0.03-2.105-0.59-4.014-1.26z" fill="#f55"/>
    <path id="path2254" d="m118.55 128.42c-4.48-0.98-9.94-2.95-14.28-5.14l-3.66-1.84 3.92-1.81c4.73-2.18 7.89-2.37 10.69-0.64 1.89 1.17 8.82 7.95 9.66 9.45 0.57 1.02-1.65 1.01-6.33-0.02z" fill="#f55"/>
    <path id="path2256" d="m139.16 119.68c-3.05-1.07-7.16-4.86-9.24-8.5l-0.97-1.69h1.56c2 0 13.14-2.3 17.99-3.72 2.06-0.6 3.9-1.09 4.1-1.09s0.14 0.78-0.15 1.74c-0.28 0.95-0.74 3.51-1.03 5.69-0.28 2.18-0.88 4.52-1.32 5.2-2.03 3.1-6.28 4.02-10.94 2.37z" fill="#f55"/>
    <path id="path2258" d="m165.57 114.96c1.49-6.03 3.57-7.67 7.88-6.24 1.44 0.48 2.55 0.94 2.45 1.01-1.4 1.17-9.81 6.7-10.19 6.7-0.28 0-0.34-0.64-0.14-1.47z" fill="#f55"/>
    <path id="path2260" d="m184.15 94.886c-3.3-0.927-6.01-1.831-6.01-2.008 0-0.178 1.74-1.478 3.87-2.889 4.84-3.213 11.45-8.217 14.95-11.323l2.67-2.373 0.98 2.177c0.53 1.198 1.7 3.243 2.6 4.545 0.89 1.302 1.63 2.597 1.63 2.878 0 0.944-12.46 10.779-13.59 10.728-0.6-0.027-3.8-0.808-7.1-1.735z" fill="#f55"/>
    <path id="path2262" d="m215.79 73.104c-1.88-4.046-1.77-6.017 0.48-8.259 0.99-0.998 2.26-1.815 2.81-1.815 1.62 0 8.86 4.435 8.13 4.981-0.11 0.089-2.13 1.69-4.48 3.559-2.35 1.868-4.57 3.622-4.94 3.898-0.48 0.365-1.02-0.275-2-2.364z" fill="#f55"/>
    <path id="path2264" d="m236.08 54.206c-3.53-1.267-7.97-2.724-9.88-3.238-1.91-0.515-3.56-0.996-3.65-1.071-0.1-0.074 0.93-1.968 2.29-4.209s4.61-8.487 7.22-13.88c5.61-11.562 8.47-15.053 14.78-18.043 3.31-1.567 4.11-1.728 8.46-1.698 3.04 0.021 5.49 0.33 6.67 0.841l1.87 0.808-4 1.217c-3.26 0.991-4.47 1.686-6.54 3.755-1.75 1.747-2.54 2.977-2.54 3.949 0 2.086 1.78 1.846 3.19-0.431 0.62-1.013 1.91-2.311 2.84-2.886 2.36-1.436 7.05-2.747 9.83-2.747 1.97 0 2.68 0.327 4.68 2.176 8.67 7.993 10.3 21.181 3.92 31.732-0.88 1.468-2.21 3.307-2.94 4.086l-1.33 1.416-3.02-1.416c-2.73-1.282-3.6-1.414-9.16-1.392-5.58 0.022-6.55 0.179-10.65 1.735-2.48 0.942-4.76 1.686-5.07 1.656-0.31-0.031-3.45-1.093-6.97-2.36z" fill="#f55"/>
    <path id="path2266" d="m118.6 190.84c-18.631-0.9-35.379-5.43-53.327-14.44-5.398-2.7-6.444-3.49-11.548-8.64-8.927-9.03-12.093-15.69-11.647-24.54 0.307-6.07 2.026-9.73 6.821-14.51 6.15-6.14 13.517-8.97 24.578-9.45 10.282-0.44 17.815 1.26 29.793 6.73 7.71 3.52 11.62 4.75 18.27 5.76 12.12 1.83 26.35-1.52 40.4-9.52 10.72-6.11 19.22-12.49 43.83-32.919 36.23-30.082 41.51-33.392 53.3-33.462 4.54-0.027 5.07 0.093 8.91 1.989 8.59 4.243 13.07 12.826 13.61 26.017 0.7 17.565-6.71 34.885-21.47 50.115-7.13 7.37-13.54 12.28-24.69 18.92-37.14 22.14-68.73 34.23-97.07 37.17-6.25 0.64-15.21 1-19.76 0.78z" fill="#fff3c3"/>
    <path id="path2268" d="m95.103 106.46c-0.587-0.14-3.76-0.97-7.051-1.87-6.726-1.82-6.073-1.13-7.913-8.415-2.419-9.58-7.379-13.533-12.591-10.034-1.768 1.188-4.705 5.721-4.747 7.326-0.057 2.222-0.751 2.203-7.518-0.207l-6.637-2.363 0.109-3.812c0.149-5.226 2.107-9.228 5.691-11.633 3.501-2.348 6.156-3.024 11.822-3.006 9.303 0.029 19.352 2.982 35.392 10.401 14.88 6.877 17.61 7.629 27.89 7.659 7.94 0.023 8.46-0.043 12.91-1.638 12.55-4.488 22.28-14.005 33.55-32.78 8.61-14.359 17.21-21.888 28.42-24.87 3.61-0.963 10.47-0.956 14.56 0.014 3.99 0.945 8.28 2.816 8.28 3.611 0 0.772-4.5 9.108-6.46 11.955l-1.5 2.191-4.26 0.293c-4.81 0.329-8.72 2.054-11.14 4.912-3.02 3.563-5.71 11.773-5.39 16.439l0.18 2.669-3.47 3.047c-4.82 4.229-11.88 9.514-16.83 12.597-4.12 2.573-4.2 2.596-8.22 2.463-3.64-0.121-4.41 0.04-7.45 1.564-2.52 1.265-4 2.487-5.79 4.787-2.25 2.9-2.65 3.17-6.75 4.46-5.77 1.82-9.77 2.79-15.51 3.78-7.04 1.21-7.6 1.14-10.31-1.36-3.35-3.09-7.2-4.754-11-4.76-3.46-0.006-4.65 0.49-10.37 4.35-3.721 2.5-5.009 2.87-7.897 2.23z" fill="#ffeda5"/>
  </g>
  <metadata>
    <rdf:RDF>
      <cc:Work>
        <dc:format>image/svg+xml</dc:format>
        <dc:type rdf:resource="http://purl.org/dc/dcmitype/StillImage"/>
        <cc:license rdf:resource="http://creativecommons.org/licenses/publicdomain/"/>
        <dc:publisher>
          <cc:Agent rdf:about="http://openclipart.org/">
            <dc:title>Openclipart</dc:title>
          </cc:Agent>
        </dc:publisher>
        <dc:title>hotdog - colour</dc:title>
        <dc:date>2007-07-27T01:49:08</dc:date>
        <dc:description>a coloured in version of the hotdog.&#xD;\n&#xD;\nthis was created during a screencast to demonstrate the new flood fill tool in the upcoming inkscape 0.46 release. the url of the video: http://blip.tv/file/317802</dc:description>
        <dc:source>http://openclipart.org/detail/4571/hotdog---colour-by-ryanlerch</dc:source>
        <dc:creator>
          <cc:Agent>
            <dc:title>ryanlerch</dc:title>
          </cc:Agent>
        </dc:creator>
        <dc:subject>
          <rdf:Bag>
            <rdf:li>clip art</rdf:li>
            <rdf:li>clipart</rdf:li>
            <rdf:li>food</rdf:li>
            <rdf:li>hotdog</rdf:li>
            <rdf:li>how i did it</rdf:li>
            <rdf:li>image</rdf:li>
            <rdf:li>media</rdf:li>
            <rdf:li>public domain</rdf:li>
            <rdf:li>remix</rdf:li>
            <rdf:li>svg</rdf:li>
          </rdf:Bag>
        </dc:subject>
      </cc:Work>
      <cc:License rdf:about="http://creativecommons.org/licenses/publicdomain/">
        <cc:permits rdf:resource="http://creativecommons.org/ns#Reproduction"/>
        <cc:permits rdf:resource="http://creativecommons.org/ns#Distribution"/>
        <cc:permits rdf:resource="http://creativecommons.org/ns#DerivativeWorks"/>
      </cc:License>
    </rdf:RDF>
  </metadata>
</svg>
